<svg xmlns="http://www.w3.org/2000/svg" viewBox="0 0 900 900" fill="none">
  <rect width="900" height="900" fill="#f8f6f3"/>
  <g fill="#d4cdc4" opacity="0.45">
    <circle cx="150" cy="150" r="3"/><circle cx="300" cy="150" r="3"/><circle cx="450" cy="150" r="3"/>
    <circle cx="600" cy="150" r="3"/><circle cx="750" cy="150" r="3"/>
    <circle cx="150" cy="300" r="3"/><circle cx="300" cy="300" r="3"/><circle cx="450" cy="300" r="3"/>
    <circle cx="600" cy="300" r="3"/><circle cx="750" cy="300" r="3"/>
    <circle cx="150" cy="450" r="3"/><circle cx="300" cy="450" r="3"/><circle cx="450" cy="450" r="4" fill="#c9b99a"/>
    <circle cx="600" cy="450" r="3"/><circle cx="750" cy="450" r="3"/>
    <circle cx="150" cy="600" r="3"/><circle cx="300" cy="600" r="3"/><circle cx="450" cy="600" r="3"/>
    <circle cx="600" cy="600" r="3"/><circle cx="750" cy="600" r="3"/>
    <circle cx="150" cy="750" r="3"/><circle cx="300" cy="750" r="3"/><circle cx="450" cy="750" r="3"/>
    <circle cx="600" cy="750" r="3"/><circle cx="750" cy="750" r="3"/>
  </g>
  <rect x="380" y="380" width="140" height="140" stroke="#c9b99a" stroke-width="1" opacity="0.4"/>
</svg>
